<?xml version="1.0" encoding="iso-8859-1"?>
<!-- Generator: Adobe Illustrator 19.0.0, SVG Export Plug-In . SVG Version: 6.00 Build 0)  -->
<svg version="1.1" id="Capa_1" xmlns="http://www.w3.org/2000/svg" xmlns:xlink="http://www.w3.org/1999/xlink" x="0px" y="0px"
	 viewBox="0 0 512 512" style="enable-background:new 0 0 512 512;" xml:space="preserve">
<g>
	<g>
		<g>
			<path d="M256,91.429C165.11,91.429,91.429,165.11,91.429,256S165.11,420.571,256,420.571S420.571,346.89,420.571,256
				C420.467,165.153,346.847,91.533,256,91.429z M179.2,153.691C146.849,177.724,127.844,215.7,128,256
				c0,2.834,0.091,5.669,0.274,8.503c0.339,5.044-3.46,9.415-8.503,9.783h-0.64c-4.797,0.021-8.773-3.714-9.052-8.503
				c-0.274-3.291-0.365-6.491-0.365-9.783c-0.157-46.056,21.558-89.452,58.514-116.937c1.935-1.469,4.377-2.103,6.782-1.759
				c2.405,0.344,4.572,1.636,6.018,3.588C184.036,144.937,183.22,150.65,179.2,153.691z"/>
			<path d="M465.463,302.629L512,256.091l-46.537-46.72c-4.661-4.626-6.476-11.4-4.754-17.737l17.006-63.543l-63.634-17.189
				c-6.345-1.682-11.301-6.638-12.983-12.983l-17.006-63.543l-63.726,16.914c-6.337,1.746-13.123-0.072-17.737-4.754L256.091,0
				l-46.72,46.537c-4.62,4.671-11.4,6.488-17.737,4.754l-63.543-17.006L110.903,97.92c-1.682,6.345-6.638,11.301-12.983,12.983
				l-63.543,17.006l16.914,63.726c1.722,6.337-0.094,13.111-4.754,17.737L0,255.909l46.537,46.72
				c4.66,4.626,6.476,11.4,4.754,17.737l-17.006,63.543l63.634,17.189c6.345,1.682,11.301,6.638,12.983,12.983l17.006,63.543
				l63.726-16.914c1.515-0.437,3.086-0.652,4.662-0.64c4.9,0.001,9.6,1.94,13.075,5.394L255.909,512l46.72-46.537
				c4.614-4.682,11.4-6.501,17.737-4.754l63.543,17.006l17.189-63.634c1.682-6.345,6.638-11.301,12.983-12.983l63.543-17.006
				l-16.914-63.726C458.987,314.029,460.802,307.255,465.463,302.629z M256,438.857c-100.989,0-182.857-81.868-182.857-182.857
				S155.011,73.143,256,73.143S438.857,155.011,438.857,256C438.756,356.947,356.947,438.756,256,438.857z"/>
		</g>
	</g>
</g>
<g>
</g>
<g>
</g>
<g>
</g>
<g>
</g>
<g>
</g>
<g>
</g>
<g>
</g>
<g>
</g>
<g>
</g>
<g>
</g>
<g>
</g>
<g>
</g>
<g>
</g>
<g>
</g>
<g>
</g>
</svg>
